<?xml version="1.0" encoding="UTF-8"?><svg id="Layer_2" xmlns="http://www.w3.org/2000/svg" xmlns:xlink="http://www.w3.org/1999/xlink" viewBox="0 0 785.37 294.17"><defs><style>.cls-1{fill:none;}.cls-2{fill:url(#linear-gradient);}.cls-3{clip-path:url(#clippath);}.cls-4{fill:#00b7ff;}.cls-5{fill:#fff;}.cls-6{fill:#1b0050;}.cls-7{fill:#270075;}</style><clipPath id="clippath"><path class="cls-1" d="m147.11,136.68c.79,0,1.62.04,2.41.13.25.03.51.06.76.1.15.01.28.04.42.07.1.03.21.03.31.04.09.01.17.01.26.04.38.06.77.13,1.17.23.2.03.39.09.58.15.07.01.13.03.2.04.29.07.6.15.9.26.19.06.38.12.57.19.1.04.19.07.29.12.01,0,.04,0,.06.02.01-.02.03-.02.04,0,.04,0,.07.01.12.03.35.13.74.26,1.09.44.44.18.83.35,1.27.57.17.09.33.18.55.31.09.04.22.09.31.17.03,0,.06.02.07.03.1.03.19.07.26.15.03.03.07.06.1.09.09.04.17.09.26.13.07.04.16.09.22.13.07.03.13.07.19.12.22.1.41.23.6.36.06.04.12.09.18.13.65.44,1.22.87,1.83,1.35.31.26.57.48.88.74l.79.79s.1.09.15.13c.18.15.32.31.47.48.06.07.12.15.18.22.12.12.22.22.32.34.13.15.26.29.38.44.07.09.15.19.22.28.09.12.16.2.23.31.07.1.13.19.2.31h.05s.04.06.06.09c.25.32.45.6.69.92.39.66.79,1.25,1.18,1.95.19.35.35.65.5,1.02.03.06.06.1.07.16.16.25.29.52.36.8,0,.03.02.04.02.07.03.06.06.13.09.19.12.25.2.49.29.76.03.04.04.1.06.14.07.18.13.35.19.53.07.19.15.36.2.57.04.18.1.36.15.55.06.19.12.38.16.58.09.35.18.74.26,1.14,0,.02.02.05.02.06.07.29.12.58.16.9.04.09.04.22.04.31v.05c.04.15.07.32.07.48.01.06.01.12.01.18.03.07.03.12.03.18.02.06.02.1.02.18s.03.18.03.25c.02.01.02.04.02.06.03.15.03.31.03.47.02.03.02.06,0,.09.02.12.02.25.02.37.02.19.03.38.03.57.02.19.02.39.02.6v.05c0,.15,0,.31-.02.47,0,.15-.01.29-.03.45v.61c0,.13,0,.26-.04.39,0,.07,0,.15-.02.22,0,.06-.01.12-.03.18,0,.07,0,.15-.02.22,0,.26-.04.51-.07.79,0,.03-.02.03-.02.04-.01,0-.01.01-.01.01-.02,0-.02.02-.02.03v.04c-.03.12-.04.25-.06.36-.06.35-.1.71-.2,1.08-.06.31-.13.61-.2.92-.07.31-.15.61-.23.92-.1.35-.23.68-.35,1.03-.13.35-.26.68-.39,1.02-.04.13-.09.25-.16.36-.2.57-.47,1.09-.74,1.63-.04.09-.09.18-.13.26-.13.25-.26.48-.39.7-.06.13-.13.26-.22.39-.04.09-.09.13-.13.22-.05.04-.07.1-.1.15-.04.06-.07.11-.12.16-.04.09-.1.18-.16.25-.06.07-.1.13-.15.19-.1.16-.21.32-.31.48-.11.18-.25.36-.39.52-.07.12-.16.25-.25.35-.16.22-.32.41-.49.61-.06.07-.13.15-.19.22-.2.23-.39.47-.6.7-.05.04-.07.07-.12.12-.26.26-.5.52-.76.76-.13.13-.28.28-.44.42-.1.1-.2.19-.31.28,0,.02,0,.03-.02.03v.02s-.03.03-.03.04c-.2.16-.38.31-.57.45-.19.16-.37.32-.57.47-.07.06-.15.12-.22.16-.13.1-.26.2-.39.29-.44.33-.87.64-1.34.92l-.1.07s-.06.03-.09.06c-.23.15-.47.28-.7.42-.03.02-.06.03-.09.04-.31.18-.61.35-.9.48-.16.09-.31.16-.45.23-.16.09-.32.15-.47.23-.18.07-.35.15-.52.22-.09.04-.18.07-.26.12-.22.07-.44.15-.65.23,0,0-.03.03-.06.06t-.03.03c-.13.04-.26.07-.39.12-.31.09-.61.19-.9.31-.02,0-.04,0-.06.02-.26.09-.52.13-.79.22-.06.03-.13.04-.2.06-.07.03-.15.06-.23.07-.03,0-.06.02-.09.02-.03.02-.06.03-.09.03-.04,0-.09,0-.13.05-.06,0-.12.01-.16.01-.06.02-.1.03-.15.03-.22.04-.48.09-.74.13-.06.01-.12.03-.18.04-.03.01-.06.01-.09.01-.07.02-.15.03-.22.03-.04,0-.12,0-.16.05h-.01c-.31.04-.57.09-.88.13h-.04c-.35,0-.7.05-1.09.09-.57.04-1.12.09-1.69.09h-.02c-.41,0-.82-.01-1.22-.03-.79-.04-1.59-.13-2.36-.25-.39-.06-.79-.13-1.16-.2h-.01c-.79-.18-1.54-.38-2.27-.6-.76-.23-1.47-.49-2.17-.8-.35-.13-.7-.29-1.05-.47-.22-.11-.44-.22-.66-.33-.22-.12-.44-.23-.64-.36-.22-.12-.44-.23-.65-.37-.22-.13-.44-.28-.66-.42-.12-.06-.23-.13-.34-.22-.03-.03-.06-.04-.1-.07-.06-.03-.11-.07-.17-.1t-.09-.05c-.13-.1-.26-.2-.39-.31-.09-.07-.17-.15-.26-.22-.15-.1-.29-.2-.44-.32-.22-.18-.44-.37-.66-.56-.26-.22-.48-.39-.7-.61-.01-.01-.04-.03-.06-.04-.23-.2-.44-.41-.64-.61-1.34-1.34-2.51-2.83-3.5-4.46-.79-1.3-1.44-2.68-1.98-4.12-.92-2.54-1.41-5.27-1.41-8.15,0-2.26.32-4.44.92-6.53.41-1.44.96-2.84,1.65-4.17.07-.12.13-.23.19-.35.16-.29.31-.57.48-.86.1-.18.21-.34.32-.51.02-.04.05-.09.09-.13.13-.23.28-.48.47-.71.12-.19.25-.38.38-.56.12-.16.23-.32.35-.47.12-.15.23-.29.35-.42v-.04c.25-.31.49-.6.74-.86.1-.11.2-.22.31-.32.07-.09.13-.18.22-.25,0-.03.03-.04.04-.06.23-.26.47-.49.72-.73.04-.03.07-.07.11-.1.13-.13.26-.25.39-.36.09-.07.18-.13.26-.2.15-.15.29-.28.44-.41.06-.06.13-.13.2-.18.38-.33.76-.62,1.15-.9.13-.1.26-.2.42-.28.04-.03.09-.06.15-.07.13-.1.25-.19.38-.29.02.01.02,0,.03-.02.13-.09.26-.16.39-.25.13-.09.28-.18.42-.26.13-.07.28-.16.44-.23.04-.03.09-.06.12-.09.12-.09.22-.16.35-.22.12-.06.23-.12.35-.16.06-.03.12-.04.18-.06.38-.2.76-.38,1.15-.55.2-.09.39-.18.6-.26.22-.09.42-.17.64-.25.2-.07.41-.15.61-.22.2-.07.42-.15.63-.2.09-.03.18-.07.26-.1.15-.04.31-.09.44-.12.15-.04.31-.09.45-.12.28-.09.54-.15.82-.19.26-.06.54-.12.8-.16.2-.03.39-.06.6-.09.04,0,.07-.02.1-.03.08-.01.17-.02.25-.03.03,0,.05,0,.08.01.52-.09,1.05-.16,1.57-.19.1-.02.19-.03.29-.02.44-.04.87-.06,1.31-.06M.62,133.78v.02l23.11-20.89,48.69-44.02h45.4v95.59c0,8.07,3.28,15.41,8.6,20.69,5.29,5.33,12.62,8.6,20.69,8.6,1.31,0,2.61-.09,3.89-.25.7-.1,1.38-.22,2.07-.35.57-.12,1.14-.25,1.69-.39,5.06-1.36,9.57-4.07,13.16-7.69,1.66-1.68,3.12-3.56,4.33-5.58.41-.67.79-1.36,1.13-2.07.23-.47.45-.93.64-1.41,1.54-3.54,2.39-7.44,2.39-11.54v-95.59h45.36v95.59c0,.54,0,1.06-.03,1.59,0,.49-.01.99-.04,1.47v.13c-.09,2.05-.25,4.09-.51,6.11-.03.13-.04.25-.04.36-.23,1.91-.56,3.8-.96,5.65-.72,3.47-1.68,6.83-2.87,10.1-.66,1.87-1.41,3.7-2.24,5.49-.19.45-.41.9-.63,1.34-1.05,2.22-2.23,4.37-3.51,6.47-.23.41-.5.83-.77,1.24-.25.41-.51.83-.8,1.24-.51.79-1.05,1.56-1.6,2.32-.31.42-.61.85-.93,1.27-.58.79-1.18,1.54-1.8,2.3-.58.73-1.18,1.44-1.81,2.14-.1.12-.19.22-.29.33-.54.6-1.08,1.2-1.65,1.78-.07.1-.18.19-.28.29-.42.45-.86.89-1.31,1.33-.18.19-.36.38-.57.57-.7.67-1.41,1.34-2.13,2-.04.06-.1.1-.16.13-.67.63-1.36,1.22-2.04,1.81-.74.61-1.52,1.22-2.29,1.81-.02.01-.03.01-.03.03-.77.58-1.54,1.17-2.35,1.72-.57.39-1.14.79-1.72,1.17-.33.23-.67.45-.99.65-.51.35-1.04.67-1.56.98-.52.32-1.05.63-1.59.93-1.12.67-2.27,1.28-3.44,1.87-.48.25-.96.48-1.44.71-.55.28-1.11.54-1.67.79-.42.19-.86.38-1.28.57-1.34.58-2.71,1.12-4.09,1.6-.41.16-.83.31-1.24.44-.31.12-.61.22-.92.31-.38.13-.77.25-1.15.36l-.02.02s-.06.02-.09.03l-.23.09-56.18,22.63-39.13,15.77h-.03c1.31.77,2.64,1.5,3.96,2.21,3.99,2.16,8.1,4.13,12.28,5.92,17.67,7.52,37.1,11.66,57.52,11.66,81.24,0,147.07-65.83,147.07-147.06S228.35,0,147.11,0C70.36,0,7.35,58.78.62,133.78"/></clipPath><linearGradient id="linear-gradient" x1="-1311.63" y1="2793.69" x2="-1310.37" y2="2793.69" gradientTransform="translate(305124.37 650041.72) scale(232.63 -232.63)" gradientUnits="userSpaceOnUse"><stop offset="0" stop-color="#8500c2"/><stop offset=".17" stop-color="#8b00b9"/><stop offset=".44" stop-color="#9e00a3"/><stop offset=".77" stop-color="#bb007f"/><stop offset="1" stop-color="#d40062"/></linearGradient></defs><g id="Layer_1-2"><g><g><g><path class="cls-5" d="m415.69,41.36v52.67c0,12.06-6.5,20.78-18.74,20.78-10.2,0-15.39-5.57-15.39-17.06v-56.39h-24.11v60.1c0,20.03,12.8,33.56,30.97,33.56,12.61,0,22.06-4.81,28.37-15.21v12.8h22.82V41.36h-23.92Z"/><path class="cls-5" d="m504.53,38.96c-14.66,0-23.92,5.56-29.49,15.76v-13.36h-22.99v91.25h24.11v-52.29c0-13.92,6.11-20.97,18.73-20.97,11.49,0,15.58,3.9,15.58,18v55.26h24.3v-63.24c0-19.85-12.8-30.41-30.23-30.41h0Z"/><path class="cls-5" d="m571.86,15.95h0c0,7.79-4.45,14.5-10.61,15.98l-13.5,3.26v-8.29c0-6.05,3.95-10.96,8.82-10.96h15.29Z"/><polygon class="cls-5" points="639.18 86.06 669.41 41.36 641.4 41.36 625.83 67.89 610.43 41.36 581.31 41.36 610.99 86.06 580.38 132.61 609.32 132.61 624.9 105.17 640.85 132.61 670.34 132.61 639.18 86.06"/><polygon class="cls-5" points="571.91 40.59 571.91 132.61 547.75 132.61 547.75 49.7 571.91 40.59"/></g><g><path class="cls-5" d="m404.65,173.85v8.78c-4.46-7.2-10.95-10.65-19.87-10.65-17.12,0-30.95,14.83-30.95,36.86,0,18.57,8.06,36.42,31.39,36.42,9.21,0,16.84-3.74,19.43-10.07v11.66c0,9.35-7.92,15.26-17.86,15.26-9.35,0-15.54-5.04-15.54-13.53h-17.42c0,18.29,14.55,29.65,34.26,29.65s35.27-11.52,35.27-32.82v-71.54h-18.71Zm-15.41,56.73c-9.21,0-15.98-8.08-15.98-20.74,0-14.53,5.47-21.59,15.98-21.59s15.98,7.34,15.98,22.73c0,11.96-6.91,19.59-15.98,19.59h0Z"/><path class="cls-5" d="m464.52,171.98c-22.75,0-30.81,10.23-31.09,24.9h17.42c.86-6.33,4.32-10.49,12.8-10.49,7.35,0,11.96,2.73,11.96,7.34,0,4.88-2.59,6.76-11.96,8.06-18.85,2.59-32.54,4.89-32.54,25.34,0,11.52,7.49,19.43,23.61,19.43,9.5,0,16.98-3.32,21.44-8.22.16,2.17.58,4.6,1.16,6.33h17.41v-44.76c0-17.85-7.76-27.93-30.23-27.93h0Zm11.37,45.78c-.14,8.34-7.34,15.4-16.98,15.4-5.91,0-9.06-2.58-9.06-7.92,0-6.03,3.44-9.06,14.11-11.08,6.9-1.29,10.21-2.31,12.08-4.18l-.14,7.78Z"/><path class="cls-5" d="m581.54,171.98c-8.92,0-15.25,3.46-19.13,11.23-5.47-8.2-10.09-11.23-19.72-11.23s-15.99,2.89-20.74,12.24v-10.37h-17.56v70.82h18.71v-43.03c0-9.22,3.9-13.83,11.37-13.83,8.22,0,11.23,2.88,11.23,14.25v42.61h18.71v-42.31c0-8.64,5.04-15.13,11.96-15.13s11.08,6.05,11.08,14.55v42.89h18.29v-49.08c0-13.24-9.93-23.61-24.19-23.61h0Z"/><polygon class="cls-5" points="633.51 173.4 633.51 244.69 614.79 244.69 614.79 180.46 633.51 173.4"/><path class="cls-5" d="m633.51,156.06h0c0,5.97-3.7,11.32-9.28,13.42l-9.43,3.56v-8.79c0-4.52,3.67-8.19,8.19-8.19h10.52Z"/><path class="cls-5" d="m684.18,171.98c-11.37,0-18.57,4.32-22.89,12.24v-10.37h-17.85v70.82h18.71v-40.58c0-10.81,4.76-16.28,14.55-16.28,8.92,0,12.08,3.03,12.08,13.97v42.89h18.87v-49.08c0-15.4-9.93-23.61-23.47-23.61h0Z"/><path class="cls-5" d="m766.66,173.85v8.78c-4.46-7.2-10.93-10.65-19.86-10.65-17.14,0-30.95,14.83-30.95,36.86,0,18.57,8.06,36.42,31.37,36.42,9.22,0,16.84-3.74,19.43-10.07v11.66c0,9.35-7.92,15.26-17.85,15.26-9.35,0-15.54-5.04-15.54-13.53h-17.42c0,18.29,14.53,29.65,34.26,29.65s35.25-11.52,35.25-32.82v-71.54h-18.71Zm-15.4,56.73c-9.22,0-15.98-8.08-15.98-20.74,0-14.53,5.47-21.59,15.98-21.59s15.98,7.34,15.98,22.73c0,11.96-6.91,19.59-15.98,19.59h0Z"/></g></g><g><g class="cls-3"><rect class="cls-2" x=".62" width="293.56" height="294.17"/></g><g><path d="m221.75,68.9v95.59c0,33.55-22.23,62.01-52.74,71.4-6.93,2.12-14.29,3.27-21.92,3.27-41.16,0-74.66-33.49-74.66-74.67v-95.59h45.37v95.59c0,16.16,13.15,29.3,29.29,29.3.66,0,1.32-.02,1.97-.08.59-.03,1.17-.08,1.74-.17.07,0,.13-.01.2-.02.04-.01.07-.01.11-.02.31-.03.62-.08.92-.14.35-.06.69-.12,1.03-.19.28-.06.57-.12.85-.18.28-.07.56-.14.84-.22.78-.21,1.54-.45,2.3-.72,1.12-.41,2.22-.89,3.28-1.42,2.11-1.08,4.08-2.41,5.86-3.94.59-.51,1.16-1.05,1.72-1.61.28-.28.55-.56.81-.85s.52-.58.77-.88c.18-.21.35-.42.52-.63.2-.25.4-.5.58-.76.35-.47.69-.95,1.01-1.45.86-1.31,1.62-2.7,2.27-4.15.14-.33.28-.66.41-.99.02-.01.02-.02.01-.03.04-.05.06-.1.07-.15.02-.04.04-.08.05-.12.11-.31.22-.62.34-.94,1.05-3.02,1.63-6.26,1.63-9.64v-95.59h45.37Z"/><path class="cls-5" d="m221.75,68.9v95.59c0,33.55-22.23,62.01-52.74,71.4-6.93,2.12-14.29,3.27-21.92,3.27-41.16,0-74.66-33.49-74.66-74.67v-95.59h45.37v95.59c0,16.16,13.15,29.3,29.29,29.3.66,0,1.32-.02,1.97-.08.59-.03,1.17-.08,1.74-.17.07,0,.13-.01.2-.02.04-.01.07-.01.11-.02.31-.03.62-.08.92-.14.35-.06.69-.12,1.03-.19.28-.06.57-.12.85-.18.28-.07.56-.14.84-.22.78-.21,1.54-.45,2.3-.72,1.12-.41,2.22-.89,3.28-1.42,2.11-1.08,4.08-2.41,5.86-3.94.59-.51,1.16-1.05,1.72-1.61.28-.28.55-.56.81-.85s.52-.58.77-.88c.18-.21.35-.42.52-.63.2-.25.4-.5.58-.76.35-.47.69-.95,1.01-1.45.86-1.31,1.62-2.7,2.27-4.15.14-.33.28-.66.41-.99.02-.01.02-.02.01-.03.04-.05.06-.1.07-.15.02-.04.04-.08.05-.12.11-.31.22-.62.34-.94,1.05-3.02,1.63-6.26,1.63-9.64v-95.59h45.37Z"/><path class="cls-4" d="m176.4,68.9l-.02.02v95.57c0,3.38-.58,6.62-1.63,9.64,1.08-3.02,1.66-6.27,1.66-9.64v-95.59h-.01Zm-2.38,107.13c.09-.22.19-.44.26-.66-.13.33-.27.66-.41.99.06-.11.11-.22.15-.33Zm-1.78,3.48c.41-.67.78-1.36,1.13-2.07.18-.36.36-.72.5-1.08-.65,1.45-1.41,2.84-2.27,4.15.23-.33.44-.66.64-1Zm-1.52-19.18c0,.15,0,.31-.01.47,0,.15-.02.29-.03.45v.53c.04-.48.05-.96.05-1.45,0-.21,0-.43-.02-.64.01.19.01.4.01.6v.04Zm-.06-1.57c.02.12.02.25.02.36.01.19.03.38.03.57,0-.32-.01-.64-.04-.96,0,.01,0,.02,0,.03Zm0-.07c0-.07,0-.15-.02-.22.01.07.01.13.01.2,0,.01,0,.02,0,.02Zm-.03,3.57c0,.07,0,.14-.02.21,0,.06-.01.12-.03.18,0,.07,0,.15-.01.22,0,.07,0,.15-.02.22.04-.3.07-.6.09-.9,0,.02,0,.05-.01.07Zm-.02-4.11s.02.02.01.03c-.01-.16-.03-.31-.05-.46.01.06.01.11.01.18s.03.18.03.25Zm-.11-1.02c.01.08.02.16.02.25.02.05.02.11.02.17.01.04.02.06.02.09-.01-.17-.03-.34-.06-.51Zm-.05-.28v.04c.02.08.04.16.05.24-.02-.15-.04-.29-.06-.44.01.06.01.12.01.16Zm0,6.89v.05c-.03.11-.04.24-.06.36-.03.18-.06.35-.08.53.07-.32.12-.65.17-.98-.01,0-.01.01-.01.01-.02,0-.02.02-.02.03Zm-.47,2.41c.08-.31.15-.62.21-.92.05-.18.08-.37.12-.55-.11.63-.25,1.26-.42,1.87.03-.14.06-.27.09-.4Zm.27-10.51c-.04-.22-.09-.43-.15-.64.05.19.09.39.13.58,0,.02.02.05.02.06Zm-.85,12.46c.05-.15.11-.3.15-.45-.18.56-.38,1.12-.61,1.66.03-.06.05-.12.07-.19.13-.34.26-.67.39-1.02Zm-.13-15.88c.07.17.13.35.19.52-.1-.34-.23-.67-.36-1,.04.11.08.22.11.33.03.05.05.1.06.15Zm-.35-.91c.05.1.09.2.13.31-.07-.19-.14-.38-.23-.57,0,.03.01.05.01.07.03.06.06.14.09.19Zm-.07,18.17c-.1.27-.21.53-.33.78.15-.31.29-.63.42-.95-.03.06-.05.12-.09.17Zm-.4-19.23s.03.05.04.07c-.02-.05-.04-.1-.07-.15.01.02.03.05.03.08Zm-.07-.16s.03.06.04.08c-.03-.08-.07-.16-.11-.23.03.05.05.1.07.15Zm-.48,35h0c-.56.55-1.13,1.09-1.72,1.6.59-.5,1.17-1.04,1.72-1.6Zm-.89-12.1s-.04.09-.07.13c.05-.06.09-.13.13-.2-.02.03-.04.05-.06.07Zm-.16.25c-.06.08-.1.13-.14.19-.09.13-.17.26-.25.39.16-.23.33-.46.48-.7-.03.05-.06.09-.09.12Zm-.39.58c-.09.12-.16.24-.25.36.07-.09.13-.18.19-.27.02-.03.04-.06.06-.09Zm-.25.36c-.06.09-.13.18-.2.26-.04.05-.08.11-.12.17.12-.14.23-.29.32-.43Zm-.26-28.07c-.07-.1-.15-.2-.23-.3.07.1.13.19.2.3h.03Zm-.88,29.51c-.12.13-.23.27-.35.41.16-.17.31-.34.45-.52-.04.03-.07.07-.1.11Zm-.36-31.02c-.07-.09-.15-.18-.23-.26.03.04.05.07.08.11.05.05.1.1.15.15Zm-1.11,32.59c-.06.06-.12.12-.18.19.17-.15.34-.32.48-.48-.1.1-.2.2-.3.29Zm-.74.7s-.01.02-.01.02c.11-.09.22-.19.32-.3-.11.1-.21.19-.31.28Zm3.32,8.8c-1.78,1.53-3.75,2.86-5.86,3.94,2.12-1.06,4.08-2.39,5.86-3.94Zm-5.5-45.68c-.17-.13-.35-.25-.53-.37.04.03.08.06.13.1.14.09.27.18.4.27Zm-1.58-1.02c-.12-.08-.23-.15-.36-.21.03.02.07.05.1.08.09.05.17.09.26.13Zm-.66-.38s-.07-.05-.1-.06c.02.02.04.03.06.05,0,0,.03,0,.04.01Zm-.59,41.73c-.08.05-.16.09-.23.12.23-.1.45-.22.67-.34-.15.08-.3.15-.44.22Zm2.47,9.29c-1.06.53-2.16,1.01-3.28,1.42,1.13-.39,2.23-.87,3.28-1.42Zm-4.83-8.25s-.02.02-.04.04c.21-.08.42-.17.63-.26-.2.07-.39.14-.59.22Zm-1.59,10.61c.29-.06.57-.14.84-.21.78-.21,1.55-.45,2.3-.73-.76.27-1.52.51-2.3.72-.28.08-.56.15-.84.22Zm1.12-54.91s0,0,.02,0c-.12-.05-.24-.09-.37-.12.1.05.19.08.29.12.02,0,.05,0,.06,0Zm-1.97,45.1c.2-.05.4-.1.6-.17-.13.03-.26.06-.39.11-.06.03-.13.04-.21.06Zm-.26-45.78c.07.02.14.04.21.06.07.01.12.03.19.04-.13-.04-.26-.08-.4-.1Zm-1.32,46.11s-.09.03-.14.04c.28-.05.57-.09.85-.16-.21.04-.46.08-.71.12Zm-.18.05s.03,0,.04-.01c-.03,0-.06.01-.1.02.02,0,.04,0,.05,0Zm-.3.04s-.11,0-.15.04c.13-.02.26-.05.4-.07-.01,0-.02,0-.04,0-.07.02-.14.03-.21.03Zm.06-46.55c.46.08.92.15,1.36.26-.39-.1-.78-.17-1.16-.23-.07-.02-.14-.03-.2-.03Zm-.79-.13c.14.01.27.04.42.07.1.03.2.03.31.05.02,0,.04,0,.06,0-.36-.06-.72-.12-1.09-.17.1.01.2.02.3.04Zm-1.96-.2c.56.03,1.11.09,1.66.16-.15-.02-.31-.04-.46-.06-.39-.04-.8-.08-1.2-.1Zm-.09,47.19c.2-.01.41,0,.61-.03.33-.02.66-.05.99-.1-.32.01-.65.04-1.01.08-.2.02-.39.03-.59.05Zm0,0c-.35.02-.7.04-1.05.04.35,0,.7-.02,1.05-.04Zm-2.43-47.17c.15-.01.29-.02.44-.03-.17,0-.35.01-.52.03h.08Zm-3.3.41c.17-.04.35-.06.53-.09-.04,0-.08.01-.13.02-.13.02-.26.05-.4.07Zm1.07-.18s.05,0,.08-.01c-.02,0-.03,0-.05,0,0,0-.02,0-.03,0Zm-.07.02s.05-.01.07-.02c-.18.03-.36.06-.54.09.16-.02.31-.05.47-.07Zm.36-.05s.05-.01.08,0c.52-.09,1.05-.16,1.57-.19.07,0,.14-.02.21-.02-.7.03-1.39.11-2.07.22.07,0,.14,0,.21-.02Zm-.33,46.73c.38.06.77.11,1.16.16-.55-.06-1.1-.13-1.64-.23.16.02.32.05.48.07Zm-1.43-46.43c.13-.03.27-.06.4-.09-.23.04-.46.09-.69.15.1-.03.19-.05.29-.06Zm-.81.19c.09-.03.18-.06.27-.07-.16.03-.32.07-.48.11.07-.01.14-.03.21-.04Zm-2.3,45.08c.72.27,1.45.5,2.2.68-.38-.1-.74-.21-1.11-.32-.37-.11-.73-.23-1.09-.36Zm2.05-45.02c-.14.03-.28.07-.42.11.07-.02.15-.04.22-.05.06-.02.13-.04.2-.06Zm-1.53.48c-.07.02-.13.05-.2.07.1-.04.2-.07.31-.11-.04.01-.07.02-.11.04Zm-1.25.46c.21-.08.42-.17.64-.24.13-.05.27-.1.41-.15-1.03.36-2.03.77-2.98,1.27.06-.03.12-.04.18-.06.38-.2.76-.38,1.15-.55.2-.09.39-.18.6-.27Zm2.11-.76c-.26.08-.5.18-.75.26.17-.06.35-.12.52-.17.07-.03.15-.06.23-.09Zm-2.46,44.4c.35.16.7.3,1.06.43-.54-.19-1.06-.41-1.58-.65.17.08.34.16.52.22Zm-2.83-42.06c.13-.07.28-.16.44-.23.04-.03.08-.06.11-.09-.19.1-.37.2-.55.32Zm-.42.26c.13-.09.27-.18.42-.26-.22.11-.42.24-.62.38.07-.04.13-.08.2-.12Zm-.4.25s-.02,0-.03.01c.02.02.02,0,.03-.01Zm-.55.38s.09-.06.15-.08c.11-.09.21-.16.32-.25-.19.12-.37.24-.55.38.02-.02.05-.04.08-.05Zm.1,38.93s-.05-.03-.07-.04c.1.07.2.14.31.21-.05-.03-.09-.06-.14-.1-.03-.03-.05-.04-.1-.07Zm-1.35-.99c.22.18.45.36.68.52-.08-.07-.17-.14-.25-.2-.14-.1-.29-.21-.43-.32Zm-1.03-.87c.33.31.67.6,1.03.87-.22-.18-.44-.37-.66-.56-.13-.11-.25-.21-.37-.31Zm.5-35.72c-.24.19-.47.39-.7.61.09-.07.18-.13.27-.2.14-.15.29-.28.43-.41Zm-1.15,1.03s.04-.03.06-.05c.13-.13.26-.25.39-.37-.15.13-.31.27-.45.42Zm-1.03,1.08c.07-.08.13-.17.22-.24,0-.01,0-.02.01-.03-.19.19-.37.39-.54.59.1-.11.2-.21.31-.32Zm-1.05,1.23v-.04c-.12.15-.24.3-.35.46.11-.14.23-.29.35-.42Zm-1.08,1.44c.12-.19.25-.38.38-.55-.23.3-.44.6-.63.91.07-.12.16-.24.25-.36Zm-.47.71c.07-.11.14-.23.22-.35-.1.14-.19.28-.27.42,0-.02.03-.04.05-.07Zm-.08.14s.02-.05.03-.07c-.07.11-.14.21-.2.32.05-.08.11-.16.17-.25Zm-.32.51c.05-.09.1-.18.15-.26-.14.23-.28.46-.4.69.08-.15.16-.29.25-.43Zm-.41,23.18c-.54-1-1.01-2.05-1.42-3.13.39,1.08.87,2.13,1.42,3.13Zm-2.83-11.28c0-2.26.32-4.44.92-6.53-.62,2.09-.95,4.29-.95,6.57,0,2.84.51,5.57,1.44,8.1-.91-2.53-1.41-5.27-1.41-8.14Z"/><path class="cls-5" d="m170.73,160.33c0,.49,0,.97-.05,1.45,0,.14-.01.28-.03.41-.02.3-.05.6-.09.9-.01.21-.04.41-.07.61-.05.33-.1.66-.17.98-.04.18-.07.37-.12.55-.06.3-.13.61-.21.92-.03.13-.06.26-.09.4-.04.17-.09.34-.14.51-.06.2-.12.39-.2.59-.04.15-.1.3-.15.45-.13.35-.26.68-.39,1.02-.02.07-.04.13-.07.19-.13.32-.27.64-.42.95-.13.29-.27.57-.42.85-.01.03-.03.06-.04.09-.09.18-.19.36-.29.54-.06.11-.12.23-.19.34-.15.26-.3.51-.45.75-.02.03-.04.06-.06.09-.04.07-.08.14-.13.2-.15.24-.32.46-.48.7-.02.03-.04.06-.06.09-.06.09-.12.18-.19.27-.09.14-.2.29-.32.43-.04.06-.08.12-.13.18-.13.17-.26.34-.41.5-.02.03-.06.07-.09.11-.03.03-.06.07-.09.11-.14.18-.29.35-.45.52-.09.11-.19.22-.29.33l-.07.07c-.16.16-.31.32-.46.47-.14.16-.31.33-.48.48-.08.07-.16.15-.25.23-.1.11-.21.21-.32.3t-.01.01h0c-.19.18-.39.35-.59.51-.19.16-.37.32-.57.46-.07.06-.15.12-.22.17-.13.1-.26.2-.39.29-.23.17-.45.33-.68.5-.22.14-.44.28-.66.42l-.1.07c-.1.06-.21.13-.31.19-.04.03-.09.05-.13.08-.14.09-.29.17-.44.25-.16.09-.31.18-.46.26-.22.12-.44.24-.67.34-.08.04-.15.08-.22.12-.08.04-.16.07-.24.11-.25.12-.5.23-.75.34-.09.04-.18.07-.27.11-.02.01-.04.01-.06.02-.21.09-.42.18-.63.26-.14.05-.29.11-.44.16-.02,0-.03.01-.05.01-.26.08-.51.16-.76.26-.05.02-.11.04-.16.05-.13.05-.26.08-.39.11-.2.07-.4.12-.6.17-.01,0-.01.01-.02.01-.15.04-.3.07-.45.11-.08.02-.15.04-.23.05-.05.02-.1.03-.14.03-.01,0-.02,0-.03,0-.28.06-.56.11-.85.16-.01,0-.03,0-.04.01-.02,0-.04,0-.05,0-.13.02-.26.05-.4.07h0s-.02.01-.02.01c-.18.02-.34.05-.51.07-.14.02-.27.04-.41.06h-.08c-.33.05-.66.08-.99.1-.2.02-.4.01-.61.03-.35.03-.7.04-1.05.04h-.07c-.4,0-.81,0-1.22-.03-.4-.02-.8-.05-1.2-.09-.39-.05-.78-.1-1.16-.16-.16-.02-.32-.05-.48-.07-.23-.04-.46-.09-.68-.13h-.02c-.4-.09-.78-.18-1.16-.28-.75-.18-1.48-.41-2.2-.68,0,0,0,0-.02,0-.36-.13-.71-.27-1.06-.43-.18-.06-.35-.14-.52-.22-.18-.07-.36-.16-.53-.24-.22-.12-.44-.22-.66-.34-.01-.01-.03-.01-.04-.02-.21-.11-.4-.22-.6-.34-.22-.12-.44-.24-.66-.37-.21-.13-.43-.27-.65-.42-.07-.04-.14-.07-.2-.12-.11-.07-.21-.14-.31-.21-.05-.03-.1-.07-.15-.1-.15-.1-.29-.21-.43-.31l-.02-.02c-.23-.16-.46-.34-.68-.52-.36-.27-.7-.56-1.03-.87-.11-.09-.22-.19-.33-.3-.01,0-.01-.01-.03-.02-.23-.2-.44-.41-.66-.63-.27-.27-.53-.54-.78-.82-.2-.22-.39-.44-.58-.66-.1-.11-.2-.23-.29-.35-.16-.19-.31-.38-.45-.57-.23-.3-.45-.61-.67-.93-.25-.37-.49-.74-.73-1.12h0c-.2-.34-.39-.66-.57-1-.55-1-1.03-2.05-1.42-3.13h0c-.93-2.54-1.44-5.27-1.44-8.11,0-2.28.33-4.48.95-6.57.07-.25.14-.49.22-.73.07-.23.15-.46.24-.69.04-.14.09-.27.15-.4.14-.37.29-.74.45-1.1.18-.41.37-.81.57-1.21.01-.01.01-.03.02-.04.07-.11.13-.23.19-.34.08-.15.16-.29.23-.43.12-.23.26-.46.4-.69.06-.11.13-.21.2-.32.08-.14.17-.28.27-.42.19-.31.4-.61.63-.91.12-.16.23-.32.35-.47.11-.16.23-.31.35-.46h0c.25-.31.49-.6.74-.87.17-.2.35-.4.54-.59,0-.01.02-.02.03-.03.08-.1.17-.19.26-.28.15-.15.29-.3.45-.45.03-.02.05-.03.06-.05.14-.15.3-.29.45-.42.23-.22.46-.42.7-.61.06-.06.13-.13.21-.17.08-.07.16-.14.24-.21.4-.32.82-.64,1.25-.92.18-.14.36-.26.55-.38.01-.01.03-.03.05-.04,0-.01.02-.01.03-.01.07-.05.13-.09.2-.13.2-.14.4-.27.62-.38.18-.12.36-.22.55-.32t.02-.01c.21-.13.44-.25.66-.36t.02-.01c.95-.5,1.96-.91,2.98-1.27.07-.02.13-.05.2-.07.03-.01.07-.02.11-.04.25-.08.5-.19.75-.26.01,0,.02-.01.03-.01.07-.02.15-.04.22-.06.14-.04.28-.08.42-.11,0-.01.03-.01.04-.02.16-.04.32-.08.48-.11.09-.03.17-.05.25-.06.23-.06.46-.11.69-.15.14-.02.27-.05.4-.07.05,0,.09-.01.13-.02.18-.03.36-.06.54-.09.01,0,.02,0,.03,0,.02,0,.03,0,.05,0,.68-.1,1.37-.18,2.07-.22.17-.02.35-.03.52-.03.29-.02.58-.02.87-.02.4,0,.8,0,1.21.03.4.02.81.06,1.2.1.15.02.3.04.46.06.37.05.73.11,1.09.17.07,0,.13,0,.2.03.38.06.77.13,1.16.23.13.02.26.05.38.09.14.02.27.06.4.1h.01c.24.06.48.13.72.2.06.02.12.04.18.06.19.06.38.12.57.19.13.03.25.07.37.12.01,0,.02,0,.03,0,.41.15.81.3,1.2.47.36.15.71.31,1.05.47.27.13.53.26.78.4.07.04.14.07.21.12.01,0,.02,0,.03.01.03.01.07.03.1.06.01,0,.03.01.03.02.01,0,.02,0,.03,0,.08.04.16.09.24.14.13.06.24.13.36.21.08.03.15.08.22.13.07.03.13.08.19.12.02.01.04.02.06.04.19.1.36.21.54.33.01.01.02.02.04.03.18.12.36.24.53.37.05.04.11.08.16.11.28.2.55.4.82.62.15.11.31.23.46.35.51.43,1,.87,1.47,1.34l.19.19s.05.04.07.07c.02.02.05.04.07.06.19.19.38.39.56.59.08.08.16.17.23.26t.02.02c.2.22.4.45.59.68.06.07.11.14.16.2.09.12.16.2.24.31.08.1.16.2.23.3h.01s.05.06.06.09c.04.05.07.1.11.14.83,1.13,1.56,2.33,2.18,3.6.04.07.08.15.11.23.03.05.05.1.07.15.11.23.22.47.32.7,0,.01.01.02.01.03.09.19.16.38.23.57.02.04.03.08.05.12.13.33.26.66.36,1,0,.02.02.05.03.07.06.16.11.33.17.5.05.17.11.36.15.55.01.02.01.05.02.07.05.13.08.26.11.39.01.04.02.08.03.13.04.18.09.36.13.55.06.21.11.42.15.64.01.04.02.07.02.11.04.2.08.4.11.6.01.06.02.12.03.19.02.05.03.1.03.15.02.15.04.29.06.44.03.17.05.34.06.51.01.03.01.05.01.08.02.15.04.3.05.46.01.08.02.16.02.25.01.02.01.03,0,.04.01.07.02.15.02.22,0,0,.01.03,0,.04.03.32.04.64.04.96.02.21.02.43.02.64Z"/><path class="cls-6" d="m176.4,68.9l-.02.02v95.57c0,3.38-.58,6.62-1.63,9.64,1.08-3.02,1.66-6.27,1.66-9.64v-95.59h-.01Zm-2.38,107.13c.09-.22.19-.44.26-.66-.13.33-.27.66-.41.99.06-.11.11-.22.15-.33Zm-1.78,3.48c.41-.67.78-1.36,1.13-2.07.18-.36.36-.72.5-1.08-.65,1.45-1.41,2.84-2.27,4.15.23-.33.44-.66.64-1Zm-1.52-19.18c0,.15,0,.31-.01.47,0,.15-.02.29-.03.45v.53c.04-.48.05-.96.05-1.45,0-.21,0-.43-.02-.64.01.19.01.4.01.6v.04Zm-.06-1.57c.02.12.02.25.02.36.01.19.03.38.03.57,0-.32-.01-.64-.04-.96,0,.01,0,.02,0,.03Zm0-.07c0-.07,0-.15-.02-.22.01.07.01.13.01.2,0,.01,0,.02,0,.02Zm-.03,3.57c0,.07,0,.14-.02.21,0,.06-.01.12-.03.18,0,.07,0,.15-.01.22,0,.07,0,.15-.02.22.04-.3.07-.6.09-.9,0,.02,0,.05-.01.07Zm-.02-4.11s.02.02.01.03c-.01-.16-.03-.31-.05-.46.01.06.01.11.01.18s.03.18.03.25Zm-.11-1.02c.01.08.02.16.02.25.02.05.02.11.02.17.01.04.02.06.02.09-.01-.17-.03-.34-.06-.51Zm-.05-.28v.04c.02.08.04.16.05.24-.02-.15-.04-.29-.06-.44.01.06.01.12.01.16Zm0,6.89v.05c-.03.11-.04.24-.06.36-.03.18-.06.35-.08.53.07-.32.12-.65.17-.98-.01,0-.01.01-.01.01-.02,0-.02.02-.02.03Zm-.47,2.41c.08-.31.15-.62.21-.92.05-.18.08-.37.12-.55-.11.63-.25,1.26-.42,1.87.03-.14.06-.27.09-.4Zm.27-10.51c-.04-.22-.09-.43-.15-.64.05.19.09.39.13.58,0,.02.02.05.02.06Zm-.85,12.46c.05-.15.11-.3.15-.45-.18.56-.38,1.12-.61,1.66.03-.06.05-.12.07-.19.13-.34.26-.67.39-1.02Zm-.13-15.88c.07.17.13.35.19.52-.1-.34-.23-.67-.36-1,.04.11.08.22.11.33.03.05.05.1.06.15Zm-.35-.91c.05.1.09.2.13.31-.07-.19-.14-.38-.23-.57,0,.03.01.05.01.07.03.06.06.14.09.19Zm-.07,18.17c-.1.27-.21.53-.33.78.15-.31.29-.63.42-.95-.03.06-.05.12-.09.17Zm-.4-19.23s.03.05.04.07c-.02-.05-.04-.1-.07-.15.01.02.03.05.03.08Zm-.07-.16s.03.06.04.08c-.03-.08-.07-.16-.11-.23.03.05.05.1.07.15Zm-.48,35h0c-.56.55-1.13,1.09-1.72,1.6.59-.5,1.17-1.04,1.72-1.6Zm-.89-12.1s-.04.09-.07.13c.05-.06.09-.13.13-.2-.02.03-.04.05-.06.07Zm-.55.83c-.09.12-.16.24-.25.36.07-.09.13-.18.19-.27.02-.03.04-.06.06-.09Zm.39-.58c-.06.08-.1.13-.14.19-.09.13-.17.26-.25.39.16-.23.33-.46.48-.7-.03.05-.06.09-.09.12Zm-.64.94c-.06.09-.13.18-.2.26-.04.05-.08.11-.12.17.12-.14.23-.29.32-.43Zm-.26-28.07c-.07-.1-.15-.2-.23-.3.07.1.13.19.2.3h.03Zm-.88,29.51c-.12.13-.23.27-.35.41.16-.17.31-.34.45-.52-.04.03-.07.07-.1.11Zm-.36-31.02c-.07-.09-.15-.18-.23-.26.03.04.05.07.08.11.05.05.1.1.15.15Zm-1.11,32.59c-.06.06-.12.12-.18.19.17-.15.34-.32.48-.48-.1.1-.2.2-.3.29Zm-.74.7s-.01.02-.01.02c.11-.09.22-.19.32-.3-.11.1-.21.19-.31.28Zm3.32,8.8c-1.78,1.53-3.75,2.86-5.86,3.94,2.12-1.06,4.08-2.39,5.86-3.94Zm-5.5-45.68c-.17-.13-.35-.25-.53-.37.04.03.08.06.13.1.14.09.27.18.4.27Zm-1.58-1.02c-.12-.08-.23-.15-.36-.21.03.02.07.05.1.08.09.05.17.09.26.13Zm-.66-.38s-.07-.05-.1-.06c.02.02.04.03.06.05,0,0,.03,0,.04.01Zm-.59,41.73c-.08.05-.16.09-.23.12.23-.1.45-.22.67-.34-.15.08-.3.15-.44.22Zm2.47,9.29c-1.06.53-2.16,1.01-3.28,1.42,1.13-.39,2.23-.87,3.28-1.42Zm-4.83-8.25s-.02.02-.04.04c.21-.08.42-.17.63-.26-.2.07-.39.14-.59.22Zm-1.59,10.61c.29-.06.57-.14.84-.21.78-.21,1.55-.45,2.3-.73-.76.27-1.52.51-2.3.72-.28.08-.56.15-.84.22Zm1.12-54.91s0,0,.02,0c-.12-.05-.24-.09-.37-.12.1.05.19.08.29.12.02,0,.05,0,.06,0Zm-1.97,45.1c.2-.05.4-.1.6-.17-.13.03-.26.06-.39.11-.06.03-.13.04-.21.06Zm-.26-45.78c.07.02.14.04.21.06.07.01.12.03.19.04-.13-.04-.26-.08-.4-.1Zm-1.8,46.2s-.11,0-.15.04c.13-.02.26-.05.4-.07-.01,0-.02,0-.04,0-.07.02-.14.03-.21.03Zm.3-.04s.03,0,.04-.01c-.03,0-.06.01-.1.02.02,0,.04,0,.05,0Zm.18-.05s-.09.03-.14.04c.28-.05.57-.09.85-.16-.21.04-.46.08-.71.12Zm-1.21-46.59c.14.01.27.04.42.07.1.03.2.03.31.05.02,0,.04,0,.06,0-.36-.06-.72-.12-1.09-.17.1.01.2.02.3.04Zm.79.13c.46.08.92.15,1.36.26-.39-.1-.78-.17-1.16-.23-.07-.02-.14-.03-.2-.03Zm-2.75-.33c.56.03,1.11.09,1.66.16-.15-.02-.31-.04-.46-.06-.39-.04-.8-.08-1.2-.1Zm-.09,47.19c-.35.02-.7.04-1.05.04.35,0,.7-.02,1.05-.04Zm0,0c.2-.01.41,0,.61-.03.33-.02.66-.05.99-.1-.32.01-.65.04-1.01.08-.2.02-.39.03-.59.05Zm-2.43-47.17c.15-.01.29-.02.44-.03-.17,0-.35.01-.52.03h.08Zm-3.3.41c.17-.04.35-.06.53-.09-.04,0-.08.01-.13.02-.13.02-.26.05-.4.07Zm1.07-.18s.05,0,.08-.01c-.02,0-.03,0-.05,0,0,0-.02,0-.03,0Zm-.07.02s.05-.01.07-.02c-.18.03-.36.06-.54.09.16-.02.31-.05.47-.07Zm.36-.05s.05-.01.08,0c.52-.09,1.05-.16,1.57-.19.07,0,.14-.02.21-.02-.7.03-1.39.11-2.07.22.07,0,.14,0,.21-.02Zm-.33,46.73c.38.06.77.11,1.16.16-.55-.06-1.1-.13-1.64-.23.16.02.32.05.48.07Zm-1.43-46.43c.13-.03.27-.06.4-.09-.23.04-.46.09-.69.15.1-.03.19-.05.29-.06Zm-.81.19c.09-.03.18-.06.27-.07-.16.03-.32.07-.48.11.07-.01.14-.03.21-.04Zm-2.3,45.08c.72.27,1.45.5,2.2.68-.38-.1-.74-.21-1.11-.32-.37-.11-.73-.23-1.09-.36Zm2.05-45.02c-.14.03-.28.07-.42.11.07-.02.15-.04.22-.05.06-.02.13-.04.2-.06Zm-.67.18c-.26.08-.5.18-.75.26.17-.06.35-.12.52-.17.07-.03.15-.06.23-.09Zm-2.11.76c.21-.08.42-.17.64-.24.13-.05.27-.1.41-.15-1.03.36-2.03.77-2.98,1.27.06-.03.12-.04.18-.06.38-.2.76-.38,1.15-.55.2-.09.39-.18.6-.27Zm1.25-.46c-.07.02-.13.05-.2.07.1-.04.2-.07.31-.11-.04.01-.07.02-.11.04Zm-1.6,44.1c.35.16.7.3,1.06.43-.54-.19-1.06-.41-1.58-.65.17.08.34.16.52.22Zm-2.83-42.06c.13-.07.28-.16.44-.23.04-.03.08-.06.11-.09-.19.1-.37.2-.55.32Zm-.42.26c.13-.09.27-.18.42-.26-.22.11-.42.24-.62.38.07-.04.13-.08.2-.12Zm-.4.25s-.02,0-.03.01c.02.02.02,0,.03-.01Zm-.55.38s.09-.06.15-.08c.11-.09.21-.16.32-.25-.19.12-.37.24-.55.38.02-.02.05-.04.08-.05Zm.1,38.93s-.05-.03-.07-.04c.1.07.2.14.31.21-.05-.03-.09-.06-.14-.1-.03-.03-.05-.04-.1-.07Zm-1.35-.99c.22.18.45.36.68.52-.08-.07-.17-.14-.25-.2-.14-.1-.29-.21-.43-.32Zm-1.03-.87c.33.31.67.6,1.03.87-.22-.18-.44-.37-.66-.56-.13-.11-.25-.21-.37-.31Zm.5-35.72c-.24.19-.47.39-.7.61.09-.07.18-.13.27-.2.14-.15.29-.28.43-.41Zm-1.15,1.03s.04-.03.06-.05c.13-.13.26-.25.39-.37-.15.13-.31.27-.45.42Zm-1.03,1.08c.07-.08.13-.17.22-.24,0-.01,0-.02.01-.03-.19.19-.37.39-.54.59.1-.11.2-.21.31-.32Zm-1.05,1.23v-.04c-.12.15-.24.3-.35.46.11-.14.23-.29.35-.42Zm-1.08,1.44c.12-.19.25-.38.38-.55-.23.3-.44.6-.63.91.07-.12.16-.24.25-.36Zm-.47.71c.07-.11.14-.23.22-.35-.1.14-.19.28-.27.42,0-.02.03-.04.05-.07Zm-.08.14s.02-.05.03-.07c-.07.11-.14.21-.2.32.05-.08.11-.16.17-.25Zm-.32.51c.05-.09.1-.18.15-.26-.14.23-.28.46-.4.69.08-.15.16-.29.25-.43Zm-.41,23.18c-.54-1-1.01-2.05-1.42-3.13.39,1.08.87,2.13,1.42,3.13Zm-2.83-11.28c0-2.26.32-4.44.92-6.53-.62,2.09-.95,4.29-.95,6.57,0,2.84.51,5.57,1.44,8.1-.91-2.53-1.41-5.27-1.41-8.14Z"/><path class="cls-7" d="m176.4,68.9l-.02.02v95.57c0,3.38-.58,6.62-1.63,9.64,1.08-3.02,1.66-6.27,1.66-9.64v-95.59h-.01Zm-2.38,107.13c.09-.22.19-.44.26-.66-.13.33-.27.66-.41.99.06-.11.11-.22.15-.33Zm-1.78,3.48c.41-.67.78-1.36,1.13-2.07.18-.36.36-.72.5-1.08-.65,1.45-1.41,2.84-2.27,4.15.23-.33.44-.66.64-1Zm-1.52-19.18c0,.15,0,.31-.01.47,0,.15-.02.29-.03.45v.53c.04-.48.05-.96.05-1.45,0-.21,0-.43-.02-.64.01.19.01.4.01.6v.04Zm-.06-1.57c.02.12.02.25.02.36.01.19.03.38.03.57,0-.32-.01-.64-.04-.96,0,.01,0,.02,0,.03Zm0-.07c0-.07,0-.15-.02-.22.01.07.01.13.01.2,0,.01,0,.02,0,.02Zm-.03,3.57c0,.07,0,.14-.02.21,0,.06-.01.12-.03.18,0,.07,0,.15-.01.22,0,.07,0,.15-.02.22.04-.3.07-.6.09-.9,0,.02,0,.05-.01.07Zm-.02-4.11s.02.02.01.03c-.01-.16-.03-.31-.05-.46.01.06.01.11.01.18s.03.18.03.25Zm-.11-1.02c.01.08.02.16.02.25.02.05.02.11.02.17.01.04.02.06.02.09-.01-.17-.03-.34-.06-.51Zm-.05-.28v.04c.02.08.04.16.05.24-.02-.15-.04-.29-.06-.44.01.06.01.12.01.16Zm0,6.89v.05c-.03.11-.04.24-.06.36-.03.18-.06.35-.08.53.07-.32.12-.65.17-.98-.01,0-.01.01-.01.01-.02,0-.02.02-.02.03Zm-.47,2.41c.08-.31.15-.62.21-.92.05-.18.08-.37.12-.55-.11.63-.25,1.26-.42,1.87.03-.14.06-.27.09-.4Zm.27-10.51c-.04-.22-.09-.43-.15-.64.05.19.09.39.13.58,0,.02.02.05.02.06Zm-.85,12.46c.05-.15.11-.3.15-.45-.18.56-.38,1.12-.61,1.66.03-.06.05-.12.07-.19.13-.34.26-.67.39-1.02Zm-.13-15.88c.07.17.13.35.19.52-.1-.34-.23-.67-.36-1,.04.11.08.22.11.33.03.05.05.1.06.15Zm-.35-.91c.05.1.09.2.13.31-.07-.19-.14-.38-.23-.57,0,.03.01.05.01.07.03.06.06.14.09.19Zm-.07,18.17c-.1.27-.21.53-.33.78.15-.31.29-.63.42-.95-.03.06-.05.12-.09.17Zm-.4-19.23s.03.05.04.07c-.02-.05-.04-.1-.07-.15.01.02.03.05.03.08Zm-.07-.16s.03.06.04.08c-.03-.08-.07-.16-.11-.23.03.05.05.1.07.15Zm-.48,35h0c-.56.55-1.13,1.09-1.72,1.6.59-.5,1.17-1.04,1.72-1.6Zm-.89-12.1s-.04.09-.07.13c.05-.06.09-.13.13-.2-.02.03-.04.05-.06.07Zm-.16.25c-.06.08-.1.13-.14.19-.09.13-.17.26-.25.39.16-.23.33-.46.48-.7-.03.05-.06.09-.09.12Zm-.39.58c-.09.12-.16.24-.25.36.07-.09.13-.18.19-.27.02-.03.04-.06.06-.09Zm-.25.36c-.06.09-.13.18-.2.26-.04.05-.08.11-.12.17.12-.14.23-.29.32-.43Zm-.26-28.07c-.07-.1-.15-.2-.23-.3.07.1.13.19.2.3h.03Zm-.88,29.51c-.12.13-.23.27-.35.41.16-.17.31-.34.45-.52-.04.03-.07.07-.1.11Zm-.36-31.02c-.07-.09-.15-.18-.23-.26.03.04.05.07.08.11.05.05.1.1.15.15Zm-1.11,32.59c-.06.06-.12.12-.18.19.17-.15.34-.32.48-.48-.1.1-.2.2-.3.29Zm-.74.7s-.01.02-.01.02c.11-.09.22-.19.32-.3-.11.1-.21.19-.31.28Zm3.32,8.8c-1.78,1.53-3.75,2.86-5.86,3.94,2.12-1.06,4.08-2.39,5.86-3.94Zm-5.5-45.68c-.17-.13-.35-.25-.53-.37.04.03.08.06.13.1.14.09.27.18.4.27Zm-1.58-1.02c-.12-.08-.23-.15-.36-.21.03.02.07.05.1.08.09.05.17.09.26.13Zm-.66-.38s-.07-.05-.1-.06c.02.02.04.03.06.05,0,0,.03,0,.04.01Zm-.59,41.73c-.08.05-.16.09-.23.12.23-.1.45-.22.67-.34-.15.08-.3.15-.44.22Zm2.47,9.29c-1.06.53-2.16,1.01-3.28,1.42,1.13-.39,2.23-.87,3.28-1.42Zm-4.83-8.25s-.02.02-.04.04c.21-.08.42-.17.63-.26-.2.07-.39.14-.59.22Zm-1.59,10.61c.29-.06.57-.14.84-.21.78-.21,1.55-.45,2.3-.73-.76.27-1.52.51-2.3.72-.28.08-.56.15-.84.22Zm1.12-54.91s0,0,.02,0c-.12-.05-.24-.09-.37-.12.1.05.19.08.29.12.02,0,.05,0,.06,0Zm-1.97,45.1c.2-.05.4-.1.6-.17-.13.03-.26.06-.39.11-.06.03-.13.04-.21.06Zm-.26-45.78c.07.02.14.04.21.06.07.01.12.03.19.04-.13-.04-.26-.08-.4-.1Zm-1.32,46.11s-.09.03-.14.04c.28-.05.57-.09.85-.16-.21.04-.46.08-.71.12Zm-.18.05s.03,0,.04-.01c-.03,0-.06.01-.1.02.02,0,.04,0,.05,0Zm-.3.04s-.11,0-.15.04c.13-.02.26-.05.4-.07-.01,0-.02,0-.04,0-.07.02-.14.03-.21.03Zm-.73-46.68c.14.01.27.04.42.07.1.03.2.03.31.05.02,0,.04,0,.06,0-.36-.06-.72-.12-1.09-.17.1.01.2.02.3.04Zm-1.96-.2c.56.03,1.11.09,1.66.16-.15-.02-.31-.04-.46-.06-.39-.04-.8-.08-1.2-.1Zm2.75.33c.46.08.92.15,1.36.26-.39-.1-.78-.17-1.16-.23-.07-.02-.14-.03-.2-.03Zm-2.83,46.86c-.35.02-.7.04-1.05.04.35,0,.7-.02,1.05-.04Zm0,0c.2-.01.41,0,.61-.03.33-.02.66-.05.99-.1-.32.01-.65.04-1.01.08-.2.02-.39.03-.59.05Zm-2.43-47.17c.15-.01.29-.02.44-.03-.17,0-.35.01-.52.03h.08Zm-3.3.41c.17-.04.35-.06.53-.09-.04,0-.08.01-.13.02-.13.02-.26.05-.4.07Zm1.36-.21s.05-.01.08,0c.52-.09,1.05-.16,1.57-.19.07,0,.14-.02.21-.02-.7.03-1.39.11-2.07.22.07,0,.14,0,.21-.02Zm-.29.03s.05,0,.08-.01c-.02,0-.03,0-.05,0,0,0-.02,0-.03,0Zm-.07.02s.05-.01.07-.02c-.18.03-.36.06-.54.09.16-.02.31-.05.47-.07Zm.03,46.68c.38.06.77.11,1.16.16-.55-.06-1.1-.13-1.64-.23.16.02.32.05.48.07Zm-1.43-46.43c.13-.03.27-.06.4-.09-.23.04-.46.09-.69.15.1-.03.19-.05.29-.06Zm-.81.19c.09-.03.18-.06.27-.07-.16.03-.32.07-.48.11.07-.01.14-.03.21-.04Zm-2.3,45.08c.72.27,1.45.5,2.2.68-.38-.1-.74-.21-1.11-.32-.37-.11-.73-.23-1.09-.36Zm2.05-45.02c-.14.03-.28.07-.42.11.07-.02.15-.04.22-.05.06-.02.13-.04.2-.06Zm-2.78.94c.21-.08.42-.17.64-.24.13-.05.27-.1.41-.15-1.03.36-2.03.77-2.98,1.27.06-.03.12-.04.18-.06.38-.2.76-.38,1.15-.55.2-.09.39-.18.6-.27Zm1.25-.46c-.07.02-.13.05-.2.07.1-.04.2-.07.31-.11-.04.01-.07.02-.11.04Zm.86-.3c-.26.08-.5.18-.75.26.17-.06.35-.12.52-.17.07-.03.15-.06.23-.09Zm-2.46,44.4c.35.16.7.3,1.06.43-.54-.19-1.06-.41-1.58-.65.17.08.34.16.52.22Zm-2.83-42.06c.13-.07.28-.16.44-.23.04-.03.08-.06.11-.09-.19.1-.37.2-.55.32Zm-.42.26c.13-.09.27-.18.42-.26-.22.11-.42.24-.62.38.07-.04.13-.08.2-.12Zm-.4.25s-.02,0-.03.01c.02.02.02,0,.03-.01Zm-.55.38s.09-.06.15-.08c.11-.09.21-.16.32-.25-.19.12-.37.24-.55.38.02-.02.05-.04.08-.05Zm.1,38.93s-.05-.03-.07-.04c.1.07.2.14.31.21-.05-.03-.09-.06-.14-.1-.03-.03-.05-.04-.1-.07Zm-1.35-.99c.22.18.45.36.68.52-.08-.07-.17-.14-.25-.2-.14-.1-.29-.21-.43-.32Zm-1.03-.87c.33.31.67.6,1.03.87-.22-.18-.44-.37-.66-.56-.13-.11-.25-.21-.37-.31Zm.5-35.72c-.24.19-.47.39-.7.61.09-.07.18-.13.27-.2.14-.15.29-.28.43-.41Zm-1.15,1.03s.04-.03.06-.05c.13-.13.26-.25.39-.37-.15.13-.31.27-.45.42Zm-1.03,1.08c.07-.08.13-.17.22-.24,0-.01,0-.02.01-.03-.19.19-.37.39-.54.59.1-.11.2-.21.31-.32Zm-1.05,1.23v-.04c-.12.15-.24.3-.35.46.11-.14.23-.29.35-.42Zm-1.08,1.44c.12-.19.25-.38.38-.55-.23.3-.44.6-.63.91.07-.12.16-.24.25-.36Zm-.47.71c.07-.11.14-.23.22-.35-.1.14-.19.28-.27.42,0-.02.03-.04.05-.07Zm-.08.14s.02-.05.03-.07c-.07.11-.14.21-.2.32.05-.08.11-.16.17-.25Zm-.32.51c.05-.09.1-.18.15-.26-.14.23-.28.46-.4.69.08-.15.16-.29.25-.43Zm-.41,23.18c-.54-1-1.01-2.05-1.42-3.13.39,1.08.87,2.13,1.42,3.13Zm-2.83-11.28c0-2.26.32-4.44.92-6.53-.62,2.09-.95,4.29-.95,6.57,0,2.84.51,5.57,1.44,8.1-.91-2.53-1.41-5.27-1.41-8.14Z"/><path class="cls-7" d="m117.82,109.57v54.92c0,8.07,3.28,15.41,8.6,20.69,5.28,5.33,12.61,8.59,20.68,8.59.66,0,1.31-.02,1.96-.06.58-.04,1.16-.1,1.74-.17.07,0,.13-.01.2-.02.04-.01.07-.01.11-.02.31-.04.62-.09.92-.14.35-.06.69-.12,1.03-.19.28-.06.57-.12.85-.18.28-.07.56-.14.84-.22.78-.21,1.54-.45,2.3-.72,1.12-.41,2.22-.89,3.28-1.42,2.11-1.08,4.08-2.41,5.86-3.94.59-.51,1.16-1.05,1.72-1.61.28-.28.55-.56.81-.85.26-.29.52-.58.77-.88.18-.21.35-.42.52-.63.2-.25.4-.5.58-.76.35-.47.69-.95,1.01-1.45.86-1.31,1.62-2.7,2.27-4.15.14-.33.28-.66.41-.99.02-.01.02-.02,0-.03.04-.05.06-.1.07-.15.02-.04.04-.08.05-.12.11-.31.22-.62.34-.94,1.05-3.02,1.63-6.26,1.63-9.64v-95.57l-58.56,40.65Zm52.86,52.21v.08c0,.11,0,.21-.03.33-.02.3-.05.6-.09.9-.01.18-.04.37-.06.56,0,.03-.01.03-.01.05-.05.33-.1.66-.17.98-.11.63-.25,1.26-.42,1.87-.04.17-.09.34-.14.51-.06.2-.12.39-.2.59-.18.56-.38,1.12-.61,1.66-.13.32-.27.64-.42.95-.13.29-.27.57-.42.85-.01.03-.03.06-.04.09-.03.06-.06.12-.09.18-.06.12-.13.24-.2.36-.06.11-.12.23-.19.34-.06.13-.13.26-.22.39-.04.09-.09.13-.13.22-.04.04-.07.1-.1.14-.02.03-.04.06-.06.09-.04.07-.08.14-.13.2-.23.36-.47.71-.73,1.06-.09.14-.2.29-.32.43-.04.06-.08.12-.13.18-.13.18-.26.33-.41.5-.02.03-.06.07-.09.11-.03.03-.06.07-.09.11-.14.18-.29.35-.45.52-.08.09-.16.19-.24.29-.02.02-.04.03-.05.04l-.07.07c-.16.16-.31.32-.46.47-.14.16-.31.33-.48.48-.08.07-.16.15-.25.23-.1.11-.21.21-.32.3t-.01.01h0s-.02.04-.02.06c-.21.16-.38.3-.57.45-.19.16-.37.32-.57.46-.07.06-.15.12-.22.17-.13.1-.26.2-.39.29-.23.17-.45.33-.68.5-.22.14-.44.29-.66.42l-.1.07s-.06.03-.09.06c-.07.04-.15.09-.22.13-.04.03-.09.05-.13.08-.12.06-.24.14-.35.21-.03,0-.06.03-.09.04-.16.09-.31.18-.46.26-.22.12-.44.24-.67.34-.08.04-.15.08-.22.12-.08.04-.16.07-.24.11-.08.04-.15.08-.23.12-.18.07-.35.14-.52.22-.09.04-.18.07-.27.11-.02.01-.04.01-.06.02-.21.09-.42.18-.63.26,0,.01-.01.01-.02.02t-.03.02c-.13.05-.26.08-.39.12-.02,0-.03.01-.05.01-.25.1-.51.18-.76.26-.03.01-.07.03-.1.04-.01,0-.04,0-.06.01-.13.05-.26.08-.39.11-.2.07-.4.12-.6.17-.01,0-.01.01-.02.01-.06.03-.13.05-.21.06-.03,0-.06.02-.09.02-.03.01-.05.02-.08.02-.02,0-.05,0-.07.01-.02,0-.05.01-.07.04-.05,0-.11.01-.16.01-.05.02-.1.03-.14.03-.01,0-.02,0-.03,0-.44.1-.89.18-1.34.25h0s-.02.01-.02.01c-.18.02-.34.05-.51.07-.12.02-.23.04-.36.06h-.13c-.33.05-.66.08-.99.1-.54.05-1.1.07-1.66.07h-.07c-.4,0-.81,0-1.22-.03-.4-.02-.8-.05-1.2-.09-.55-.06-1.1-.13-1.64-.23-.23-.04-.46-.09-.68-.13h-.02c-.4-.09-.78-.18-1.16-.28-.75-.18-1.48-.41-2.2-.68,0,0,0,0-.02,0-.54-.19-1.06-.41-1.58-.65-.18-.07-.36-.16-.53-.24-.22-.12-.44-.22-.66-.34-.01-.01-.03-.01-.04-.02-.2-.1-.4-.21-.6-.34-.22-.12-.44-.24-.66-.37-.21-.13-.43-.27-.65-.42-.07-.04-.14-.07-.2-.12-.11-.07-.21-.14-.31-.21-.03-.02-.06-.04-.1-.06-.03-.02-.04-.04-.05-.04-.01-.01-.02-.01-.04-.01-.13-.1-.26-.2-.39-.3l-.02-.02c-.23-.16-.46-.34-.68-.52-.36-.27-.7-.56-1.03-.87-.11-.09-.22-.19-.33-.3-.01,0-.01-.01-.03-.02-.01-.01-.02-.02-.03-.02-.23-.21-.42-.4-.63-.61h-.01c-.27-.27-.53-.54-.77-.82-.2-.21-.4-.43-.58-.66-.1-.11-.2-.23-.29-.35-.15-.18-.3-.37-.45-.57-.23-.3-.45-.61-.67-.93-.26-.37-.5-.74-.73-1.12h0c-.2-.34-.39-.66-.57-1-.55-1-1.03-2.05-1.42-3.13h0c-.93-2.54-1.44-5.27-1.44-8.11,0-2.28.33-4.48.95-6.57.06-.25.14-.49.22-.73.08-.23.15-.46.24-.69.04-.14.09-.27.15-.4.13-.37.28-.74.45-1.1.17-.41.36-.81.57-1.21.01-.01.01-.03.02-.04.07-.11.13-.23.19-.34.08-.15.16-.29.23-.43.12-.23.26-.46.4-.69.06-.11.13-.21.2-.32.08-.14.17-.28.27-.42.19-.31.4-.61.63-.91.1-.16.22-.32.35-.47.11-.16.23-.31.35-.46h0c.25-.31.49-.6.74-.87.17-.2.35-.4.54-.59,0-.01.02-.02.03-.03.08-.1.17-.19.26-.28.15-.16.3-.3.45-.45.03-.02.05-.03.06-.05.14-.15.3-.29.45-.42.23-.22.46-.42.7-.61.06-.06.13-.13.21-.17.08-.07.16-.14.24-.21.3-.25.59-.48.91-.7.11-.08.21-.16.34-.22.18-.14.36-.26.55-.38.01-.01.03-.03.05-.04,0-.01.02-.01.03-.01.07-.05.13-.09.2-.13.2-.14.4-.27.62-.38.18-.12.36-.22.55-.32t.02-.01c.11-.09.21-.15.33-.21.11-.06.23-.11.33-.15t.02-.01c1.28-.67,2.63-1.22,4.04-1.64.01,0,.02-.01.03-.01.07-.02.15-.04.22-.06.14-.04.28-.08.42-.11,0-.01.03-.01.04-.02.16-.04.32-.08.48-.11.09-.03.17-.05.25-.06.23-.06.46-.11.69-.15,1.05-.22,2.12-.36,3.22-.41.17-.02.35-.03.52-.03.29-.02.58-.02.87-.02.4,0,.8,0,1.21.03,1.4.07,2.78.27,4.11.59.13.02.26.05.38.09.14.02.27.06.4.1h.01c.23.06.48.12.72.2.25.07.5.15.75.25.13.03.25.07.37.12.01,0,.02,0,.03,0,.04,0,.07.02.11.03.35.13.74.27,1.09.44.37.15.7.29,1.05.47.07.03.15.06.22.1.18.09.34.17.56.3.06.03.14.07.21.12.01,0,.02,0,.03.01.03.01.07.03.1.06.01,0,.03.01.03.02.01,0,.02,0,.03,0,.1.03.17.07.24.14.13.06.24.13.36.21.08.03.15.08.22.13.07.03.13.08.19.12.02.01.04.02.06.04.2.09.37.2.54.33.01.01.02.02.04.03.18.12.36.24.53.37.05.04.11.08.16.11.28.2.55.4.82.62.15.11.31.23.46.35.3.26.56.48.87.74l.6.6.19.19s.05.04.07.07c.02.02.05.04.07.06.18.15.32.31.47.48.03.04.06.08.09.11.08.08.16.17.23.26t.02.02s.1.11.16.17c.13.14.26.29.37.43.02.03.04.05.06.08.06.07.11.14.16.2.09.12.16.2.24.31.08.1.16.2.23.3h.01s.05.06.06.09c.04.05.07.1.11.14.2.27.38.51.58.78.39.65.78,1.25,1.18,1.95.16.3.3.57.42.87.04.07.08.15.11.23.03.05.05.1.07.15.14.22.26.46.32.7,0,.01.01.02.01.03.09.19.16.38.23.57.02.04.03.08.05.12.13.33.26.66.36,1,0,.02.02.05.03.07.06.17.13.32.17.5.05.17.11.36.15.55.01.02.01.05.02.07.04.12.08.25.11.39.01.04.02.08.03.13.04.18.09.36.13.55.06.21.11.42.15.64.01.04.02.07.02.11.05.19.08.39.11.6.01.06.02.12.03.19.02.05.03.1.03.15.02.15.04.29.06.44.03.17.05.34.06.51.01.03.01.05.01.08.02.15.04.3.05.46.01.01.01.02.01.03.01.07.02.14.01.22.01.02.01.03,0,.04.01.07.02.15.02.22.01.02.01.03,0,.04.03.32.04.64.04.96.02.21.02.43.02.64,0,.49,0,.97-.05,1.45Z"/><path class="cls-7" d="m169.01,235.89l-79.42,46.63c-5.6-2.38-11.02-5.11-16.25-8.13C30.88,249.74,1.87,204.44.09,152.23c-.06-1.72-.09-3.43-.09-5.13,0-4.49.2-8.93.6-13.3l71.83-64.9v95.59c0,41.18,33.5,74.67,74.66,74.67,7.63,0,14.99-1.15,21.92-3.27Z"/></g></g></g></g></svg>