<svg xmlns="http://www.w3.org/2000/svg" version="1.1" xmlns:xlink="http://www.w3.org/1999/xlink" xmlns:svgjs="http://svgjs.dev/svgjs" width="1000" height="623" viewBox="0 0 1000 623"><g transform="matrix(1,0,0,1,-0.6060606060606233,0.2522267206477409)"><svg viewBox="0 0 396 247" data-background-color="#ffffff" preserveAspectRatio="xMidYMid meet" height="623" width="1000" xmlns="http://www.w3.org/2000/svg" xmlns:xlink="http://www.w3.org/1999/xlink"><g id="tight-bounds" transform="matrix(1,0,0,1,0.2400000000000091,-0.09999999999999432)"><svg viewBox="0 0 395.52 247.2" height="247.2" width="395.52"><g><svg></svg></g><g><svg viewBox="0 0 395.52 247.2" height="247.2" width="395.52"><g transform="matrix(1,0,0,1,143.1655925581395,47.215199999999996)"><svg viewBox="0 0 109.18881488372094 152.7696" height="152.7696" width="109.18881488372094"><g><svg viewBox="0 0 109.18881488372094 152.7696" height="152.7696" width="109.18881488372094"><g><svg viewBox="0 0 109.18881488372094 152.7696" height="152.7696" width="109.18881488372094"><g><svg viewBox="0 0 109.18881488372094 152.7696" height="152.7696" width="109.18881488372094"><g id="textblocktransform"><svg viewBox="0 0 109.18881488372094 152.7696" height="152.7696" width="109.18881488372094" id="textblock"><g><svg viewBox="0 0 109.18881488372094 152.7696" height="152.7696" width="109.18881488372094"><g transform="matrix(1,0,0,1,0,0)"><svg width="109.18881488372094" viewBox="1.5499999523162842 -32.099998474121094 23.05000114440918 32.25" height="152.7696" data-palette-color="#6230a3"><path d="M24.3-32.1L24.3-29.1 6.35-3.25 19.65-3.25 24.4-3.6 24.6-3.3 24.25 0.1 18.45 0 4.4 0 1.55 0.15 1.55-2.8 19.55-28.75 7.2-28.75 2.4-28.4 2.15-28.7 2.45-32.1 21.85-32.05 24.3-32.1Z" opacity="1" transform="matrix(1,0,0,1,0,0)" fill="#6230a3" class="undefined-text-0" data-fill-palette-color="primary" id="text-0"></path></svg></g></svg></g></svg></g></svg></g></svg></g></svg></g></svg></g><path d="M70.053 41.215L70.053 0 317.253 0 317.253 247.2 70.053 247.2 70.053 205.985 83.83 205.985 83.83 233.423 303.476 233.423 303.476 13.777 83.83 13.777 83.83 41.215Z" fill="#6230a3" stroke="transparent" data-fill-palette-color="primary"></path></svg></g><defs></defs></svg><rect width="395.52" height="247.2" fill="none" stroke="none" visibility="hidden"></rect></g></svg></g></svg>